<svg width="72" height="16" viewBox="0 0 144 16" fill="none" xmlns="http://www.w3.org/2000/svg">
<g clip-path="url(#clip0_122_8961)">
<path d="M61.2184 12.2097L63.5334 10.9319C64.1181 12.4973 65.3806 13.5322 67.6025 13.5322C69.8243 13.5322 70.6429 12.6281 70.6429 11.5053C70.6429 10.1397 69.3565 9.67646 66.9246 8.9704C64.3757 8.24368 61.8963 7.36196 61.8963 4.45162C61.8963 1.54128 64.3995 0 67.1585 0C69.9175 0 71.836 1.34496 72.8647 3.39425L70.5972 4.629C70.0125 3.39425 68.9838 2.46949 67.1603 2.46949C65.5926 2.46949 64.5877 3.2186 64.5877 4.38618C64.5877 5.55376 65.4994 6.08245 67.8857 6.7885C70.599 7.60478 73.3343 8.39694 73.3343 11.4606C73.3343 14.2813 70.9498 16 67.5349 16C64.3081 16 62.0863 14.5018 61.2202 12.2097H61.2184Z" fill="white"/>
<path d="M74.1967 8.00086C74.1967 3.52685 77.7742 0 82.7551 0C85.7479 0 88.4138 1.43278 89.7933 3.68012L87.4545 4.95792C86.5884 3.4373 84.8124 2.46776 82.7551 2.46776C79.225 2.46776 76.8862 4.82531 76.8862 7.99914C76.8862 11.173 79.225 13.5305 82.7551 13.5305C84.8124 13.5305 86.614 12.561 87.4545 11.0404L89.7933 12.2958C88.4375 14.5431 85.7717 15.9983 82.7551 15.9983C77.7742 15.9983 74.1967 12.4714 74.1967 7.99742V8.00086Z" fill="white"/>
<path d="M90.3359 8.00086C90.3359 3.52685 94.1017 0 98.8249 0C103.548 0 107.314 3.52685 107.314 8.00086C107.314 12.4749 103.572 16.0017 98.8249 16.0017C94.078 16.0017 90.3359 12.4749 90.3359 8.00086ZM104.624 8.00086C104.624 4.82704 102.099 2.46949 98.8249 2.46949C95.5506 2.46949 93.0255 4.82704 93.0255 8.00086C93.0255 11.1747 95.5506 13.5322 98.8249 13.5322C102.099 13.5322 104.624 11.1747 104.624 8.00086Z" fill="white"/>
<path d="M120.362 5.35573C120.362 8.19891 118.023 10.4256 114.937 10.4256H111.593V15.7141H108.904V0.285873H114.937C118.023 0.285873 120.362 2.49016 120.362 5.354V5.35573ZM117.672 5.35573C117.672 3.79034 116.526 2.66753 114.937 2.66753H111.593V8.04564H114.937C116.526 8.04564 117.672 6.89872 117.672 5.35745V5.35573Z" fill="white"/>
<path d="M131.834 13.2894V15.7141H121.896V0.285873H131.717V2.71059H124.586V6.72135H131.134V9.12367H124.586V13.2894H131.834Z" fill="white"/>
<path d="M143.994 11.0421C143.994 14.2814 141.283 16 138.266 16C135.858 16 133.683 14.9633 132.77 12.8038L135.061 11.5484C135.529 12.8486 136.629 13.5322 138.264 13.5322C140.111 13.5322 141.304 12.5851 141.304 11.0421C141.304 9.49909 140.111 8.57432 138.264 8.57432H137.656L136.579 7.05371L140.109 2.66753H133.258V0.285873H143.312V2.44538L139.993 6.58875C142.238 7.09504 143.99 8.63804 143.99 11.0404L143.994 11.0421Z" fill="white"/>
<path d="M46.4207 0.904101C50.5702 0.904101 53.9468 4.08654 53.9468 7.99742C53.9468 11.9083 50.5702 15.0907 46.4207 15.0907C42.2713 15.0907 38.8947 11.9083 38.8947 7.99742C38.8947 4.08654 42.2694 0.904101 46.4207 0.904101ZM46.4207 0C41.7341 0 37.9354 3.58024 37.9354 7.99742C37.9354 12.4146 41.7341 15.9948 46.4207 15.9948C51.1074 15.9948 54.9061 12.4146 54.9061 7.99742C54.9061 3.58024 51.1074 0 46.4207 0Z" fill="white"/>
<path d="M27.453 2.88451C30.444 2.88451 32.8778 5.17834 32.8778 7.99742C32.8778 10.8165 30.444 13.1103 27.453 13.1103C24.4619 13.1103 22.0281 10.8165 22.0281 7.99742C22.0281 5.17834 24.4619 2.88451 27.453 2.88451ZM27.453 0C22.7663 0 18.9677 3.58024 18.9677 7.99742C18.9677 12.4146 22.7663 15.9948 27.453 15.9948C32.1396 15.9948 35.9383 12.4146 35.9383 7.99742C35.9383 3.58024 32.1396 0 27.453 0Z" fill="white"/>
<path d="M8.48531 4.86492C10.318 4.86492 11.8089 6.27015 11.8089 7.99742C11.8089 9.72468 10.318 11.1299 8.48531 11.1299C6.65268 11.1299 5.16172 9.72468 5.16172 7.99742C5.16172 6.27015 6.65268 4.86492 8.48531 4.86492ZM8.48531 0C3.79866 0 0 3.58024 0 7.99742C0 12.4146 3.79866 15.9948 8.48531 15.9948C13.172 15.9948 16.9706 12.4146 16.9706 7.99742C16.9706 3.58024 13.172 0 8.48531 0Z" fill="white"/>
</g>
<defs>
<clipPath id="clip0_122_8961">
<rect width="144" height="16" fill="white"/>
</clipPath>
</defs>
</svg>
