<svg width="655" height="147" viewBox="0 0 655 147" fill="none" xmlns="http://www.w3.org/2000/svg">
<path fill-rule="evenodd" clip-rule="evenodd" d="M83.3767 36.1975L116.004 55.5492C117.682 59.4506 118.611 63.75 118.611 68.2665C118.611 72.7826 117.682 77.0815 116.004 80.9826L83.3754 100.335C67.0158 98.805 54.2118 85.0315 54.2118 68.2665C54.2118 51.501 67.0165 37.7273 83.3767 36.1975Z" fill="#FAFFF0"/>
<path fill-rule="evenodd" clip-rule="evenodd" d="M0.0996184 123.145L0.0996201 83.8969C5.98645 76.243 15.2351 71.3105 25.6354 71.3105C43.4187 71.3105 57.835 85.7315 57.835 103.521C57.835 108.449 56.7283 113.12 54.75 117.296L23.7594 135.677C14.1274 135.124 5.63001 130.335 0.0996184 123.145Z" fill="#FAFFF0"/>
<path fill-rule="evenodd" clip-rule="evenodd" d="M23.7568 0.864256L54.7512 19.2475C56.7287 23.4234 57.835 28.0927 57.835 33.0205C57.835 50.8097 43.4187 65.2306 25.6354 65.2306C15.2353 65.2306 5.98674 60.2984 0.0999123 52.6446L0.099914 13.3964C5.62979 6.20672 14.1261 1.41849 23.7568 0.864256Z" fill="#FAFFF0"/>
<path d="M199.353 117.414C175.382 117.414 157.735 101.679 156.706 80.062H179.206C179.353 94.6207 184.206 99.3265 199.794 99.3265C212.441 99.3265 218.47 95.3559 218.47 87.4149V83.7384C218.47 78.0032 215.676 75.7974 205.676 74.1797L191.411 71.8268C172.294 68.5916 160.088 56.9741 160.088 41.9743C160.088 23.8863 177.588 8.88647 198.47 8.88647C220.382 8.88647 237.146 23.5922 239.058 43.886H216.411C216.411 31.0921 211.705 26.9745 198.029 26.9745C186.853 26.9745 181.559 30.6509 181.559 38.1508V41.5331C181.559 47.4154 184.794 50.2095 194.353 51.68L209.205 54.3271C230.087 58.0035 240.529 67.5622 240.529 83.2973C240.529 101.974 221.705 117.414 199.353 117.414Z" fill="#FAFFF0"/>
<path d="M284.762 117.414C262.85 117.414 246.38 100.062 246.38 76.9738C246.38 54.18 262.85 36.8273 284.762 36.8273C303.879 36.8273 318.585 49.6212 321.967 69.1798H300.056C299.32 57.8564 295.497 54.3271 284.32 54.3271C273.438 54.3271 268.732 59.1799 268.732 70.5033V83.5914C268.732 95.0618 273.585 100.062 284.32 100.062C295.35 100.062 299.32 96.3854 300.056 84.9149H321.967C318.585 104.621 303.732 117.414 284.762 117.414Z" fill="#FAFFF0"/>
<path d="M365.395 117.414C342.748 117.414 325.836 100.062 325.836 76.9738C325.836 54.0329 342.748 36.8273 365.395 36.8273C388.189 36.8273 405.1 54.0329 405.1 76.9738C405.1 100.062 388.042 117.414 365.395 117.414ZM365.395 100.062C377.306 100.062 382.747 94.9148 382.747 83.7384V70.5033C382.747 59.327 377.306 54.3271 365.395 54.3271C353.777 54.3271 348.189 59.4741 348.189 70.5033V83.7384C348.189 94.9148 353.777 100.062 365.395 100.062Z" fill="#FAFFF0"/>
<path d="M453.736 36.8273C473.883 36.8273 489.324 54.4741 489.324 77.2679C489.324 99.6206 473.147 117.414 453.148 117.414C444.912 117.414 437.707 114.326 432.56 108.885V146.385H411.677V38.2979H431.089V47.1213C436.383 41.0919 445.354 36.8273 453.736 36.8273ZM466.824 83.8855V70.6504C466.824 59.327 461.53 54.3271 449.765 54.3271C438.001 54.3271 432.56 59.327 432.56 70.6504V83.8855C432.56 94.9148 438.001 100.062 449.765 100.062C461.53 100.062 466.824 94.9148 466.824 83.8855Z" fill="#FAFFF0"/>
<path d="M569.07 82.562H515.247V86.6796C515.247 96.9736 520.1 101.091 531.57 101.091C542.747 101.091 547.011 98.4441 547.746 90.7972H568.776C564.511 105.65 549.511 117.414 531.864 117.414C510.247 117.414 493.188 101.385 493.188 77.8562C493.188 55.9447 509.365 36.8273 532.158 36.8273C552.746 36.8273 569.07 54.4741 569.07 75.6503V82.562ZM531.864 52.4153C520.247 52.4153 515.247 56.68 515.247 66.6798V68.5916H547.011V67.121C547.011 56.5329 542.894 52.4153 531.864 52.4153Z" fill="#FAFFF0"/>
<path d="M635.873 60.7976C647.49 65.2093 654.99 74.1798 654.99 85.209C654.99 102.562 638.226 117.414 615.726 117.414C592.491 117.414 576.168 103.738 574.55 84.3267H595.432C595.432 94.6207 600.726 99.1794 614.696 99.1794C627.196 99.1794 633.079 95.7971 633.079 88.2972V80.062C633.079 73.5915 626.755 70.2092 614.108 70.2092H598.373V52.8565H612.638C624.402 52.8565 629.255 50.2095 629.255 44.0331V36.092C629.255 29.7686 624.402 26.9745 613.961 26.9745C602.05 26.9745 597.638 31.0921 597.638 40.3567H576.756C578.815 23.151 595.873 8.88647 615.138 8.88647C636.608 8.88647 651.167 22.5628 651.167 38.739C651.167 48.1507 645.137 56.0918 635.873 60.7976Z" fill="#FAFFF0"/>
</svg>
